<svg width="25" height="24" viewBox="0 0 25 24" fill="none" xmlns="http://www.w3.org/2000/svg">
<path id="Vector" fill-rule="evenodd" clip-rule="evenodd" d="M7.16667 5.33333C7.16667 3.91885 7.72857 2.56229 8.72876 1.5621C9.72896 0.561903 11.0855 0 12.5 0C13.9145 0 15.271 0.561903 16.2712 1.5621C17.2714 2.56229 17.8333 3.91885 17.8333 5.33333C17.8333 6.74782 17.2714 8.10438 16.2712 9.10457C15.271 10.1048 13.9145 10.6667 12.5 10.6667C11.0855 10.6667 9.72896 10.1048 8.72876 9.10457C7.72857 8.10438 7.16667 6.74782 7.16667 5.33333ZM7.16667 13.3333C5.39856 13.3333 3.70286 14.0357 2.45262 15.286C1.20238 16.5362 0.5 18.2319 0.5 20C0.5 21.0609 0.921427 22.0783 1.67157 22.8284C2.42172 23.5786 3.43913 24 4.5 24H20.5C21.5609 24 22.5783 23.5786 23.3284 22.8284C24.0786 22.0783 24.5 21.0609 24.5 20C24.5 18.2319 23.7976 16.5362 22.5474 15.286C21.2971 14.0357 19.6014 13.3333 17.8333 13.3333H7.16667Z" fill="#525252" fill-opacity="0.583333"/>
</svg>
